<svg xmlns="http://www.w3.org/2000/svg" version="1.1" xmlns:xlink="http://www.w3.org/1999/xlink" xmlns:svgjs="http://svgjs.dev/svgjs" width="1000" height="1000" viewBox="0 0 1000 1000"><rect width="1000" height="1000" fill="#36aedc"></rect><g transform="matrix(0.7,0,0,0.7,150.00000546874986,106.25)"><svg viewBox="0 0 320 360" data-background-color="#36aedc" preserveAspectRatio="xMidYMid meet" height="1125" width="1000" xmlns="http://www.w3.org/2000/svg" xmlns:xlink="http://www.w3.org/1999/xlink"><g id="tight-bounds" transform="matrix(1,0,0,1,0.0000025000000505315256,0)"><svg viewBox="0 0 320 360" height="360" width="320"><g><svg></svg></g><g><svg viewBox="0 0 320 360" height="360" width="320"><g><path transform="translate(-19.44751,3.1739) scale(3.53591,3.53591)" d="M67.6 10.7c0.2 0 1.8 0.8 2.7 1.1-0.3 0.1-1-0.2-1.8-0.5 0.2 0 0.6 0.1 1 0.3-0.2-0.2-1.7-0.7-1.9-0.9M52.7 7.6c0.3-0.1 3.8 0.4 5.4 0.5 0.1-0.1-0.2-0.1-0.6-0.2 0.5-0.1 1.5 0.2 2.2 0.3-2.1 0.1-4.4-0.5-6.4-0.3-0.7 0-0.2-0.2-0.6-0.3M49.8 7.6c1.8 0 3.2 0 0.6 0.2-0.3-0.1-0.7-0.1-0.6-0.2M78.1 15.9c0.2 0 1 0.9 1.4 1.2-0.1 0.1-0.9-0.7-1.3-1 0.1 0.1 0 0-0.1-0.2M76.1 14.6c-0.8-0.7-1.1-0.7-1.2-1.1 0.7 0.4 1.2 0.8 1.2 1.1M63.2 8.3c0.1-0.1 0.3 0.1 0.8 0.2-0.6-0.1-0.5 0-0.3 0.2-0.7-0.1-0.9-0.2-0.7-0.4 0.4 0.2 0.5 0.1 0.2 0M34.8 9.5c0-0.1 0.4-0.3 0.7-0.4-0.3 0.2-0.2 0.3 0.3 0.1 0 0.1-0.6 0.3-1 0.5 0.2-0.1 0.4-0.4 0-0.2M65.2 7.3c-0.3 0.1-1.4-0.5-2.5-0.7-0.6-0.2 2.4 0.5 2.5 0.7M6.2 56.7c0.6 2.5 0.2 2.4 0 0M6.3 41.7c0.1-0.4 0.2-1.5 0.3-1.4-0.3 2.4-0.8 3.5-0.9 5.3 0.3-1.6-0.1 0.9-0.2 1.5 0.1 0.8 0.1-0.5 0.3-0.3 0.2 0.3-0.4 4.5-0.2 2.2-0.2 2.1 0 4.4 0.4 5-0.5 3.2 2 10.4 2.5 11.9 0.1 0.1 0-0.5 0.2-0.1 0.2 1.3 1.1 2.2 1.4 3.6 0.3 0.4 1.5 2.6 1.7 3.1 0.4 0.8 0.6 0.7 1 1.5 1.2 2.3 3.1 4.5 4.9 6.6 5.8 6.8 14.7 12.4 24.6 14.4 9.9 2.1 20.3 0.6 28.4-3.3 0.5-0.3 0.4-0.4 1-0.6 2.8-0.9 6.2-3.8 8.1-4.9 0.9-1 3.3-2.7 3.6-3.7 1.7-1.4 3.4-3.7 4.3-5.2 0.5-0.8 0.9-0.8 1.1-1.3-0.1 0 1.6-2.1 2.1-3.3-0.2 0-0.5 0.6-0.5 0 3.6-6.9 5.6-16.2 4.5-22.6 0.2 7.9-1.8 16.7-5.6 22.3-1.7 3.6-5.2 7.5-8.4 10.3-0.5 0.5-1 1.1-1.6 1.5-1.9 1.6-4 2.9-6.2 4.1-5.2 2.9-11 5.4-17.8 5.5 11.7-1 22.2-6.9 28-14.1-4.4 4.3-6.3 6-11.2 8.5-0.4 0.7-3.7 2.1-5.9 2.7 1.3-0.6 4-1.6 4.9-2.4-7.3 3.5-15.4 5.5-23 4.4 2.9 0 7 0.1 10.9-0.6 0.6-0.2 0.9-0.4 1.6-0.5 7.6-1.7 14.9-5.4 20.1-10.6-3 2.7-7.5 5.9-10.4 6.9 2.7-1.5 7.6-4.4 9.2-6.6-3.2 3.2-9.2 6.4-13 7.8-0.6 0.1 0.4-0.4-0.6 0-1.2 0.3-0.7 0.3-1 0.5-4.6 1.3-9.9 2.4-14.3 2-0.8-0.1-1.1-0.3-1.8-0.3-0.8-0.1-1.5-0.1-2.4-0.1-3.5-0.4-7.3-1.8-10.1-3-1.5-0.7-3-1.2-4.5-2.1-1.2-0.7-2.2-1.5-3.2-2.3-3.8-2.8-7-5.6-10-9.6-5.4-7.5-8.2-16.9-7.8-26.2 0.4-9.3 4.1-18.4 10-25.1-0.3 0.3 0.4-0.7 1-1.3 0 0.2-0.1 0.5 0.6-0.2 0.6-0.7-0.2-0.2 0.1-0.6 6.2-6.8 17-12.3 28.1-12.5 0.4-0.3 1.1-0.7 1.9-0.5 0 0.1-0.5 0.1-0.5 0.1 1.1-0.1 2.1-0.1 2.6 0.1 0.1-0.1-0.4-0.2 0-0.2 0.7 0.2 0.9 0 1.3 0.2-0.3 0-0.6 0-0.8 0.1 2.5 0 4.1 0.6 6.6 0.8-1.3-0.3-1.6-0.3-2.6-0.6 1.1 0.2 1.6 0.4 2.1 0.3-0.2 0-0.1-0.3 0.1-0.2 2 0.5 2.2 0.7 4.3 1.4 0.2-0.2-0.9-0.3-1.2-0.6 2 0.7 3.8 1.2 5 2-0.4-0.3-1.6-0.7-2.5-1.1-0.1 0.1 0.3 0.2 0.4 0.4-1-0.5-2.4-1-3.8-1.2 1.2 0.3 2 0.7 2.5 0.9-1.1-0.2-2.5-0.9-4.1-1.2 2.6 0.8 7.5 2.6 10.5 4.2-1.1-0.7-2.4-1.2-3.1-1.6 0.6 0.1 1.3 0.5 1.3 0.3 0.7 0.3 1.6 1 2.1 1.1-0.9-0.6-2.7-1.5-3.3-1.8 7.5 3.4 14.2 9.1 18.5 16.4 0.4 0.7 1 2.3 1.5 2.5-0.1-0.5-0.5-0.8-0.9-1.6 0.2 0 0.2-0.3 0-0.6-0.4-0.5 0 0.4-0.4-0.1-1.8-3.3-4-6.2-7.4-9.4 1.9 1.8 0.5 0.5 0.1-0.1 2.6 2.3 5.6 6.2 6.9 8.2-0.2-0.3-0.3-0.5-0.2-0.5 2.4 4.1 3.9 7.8 5.4 13.1 0.1 0.1 0-0.4 0.2-0.1 1 4.2 1.3 7.7 1.2 10.9 0.8-5.4-1-13.8-4.2-20.4-0.4-0.8-0.4-0.2-0.8-1.1 0-0.3-0.3-0.9-0.5-1.3-4-6.6-8.9-11.3-14.7-15 0.4 0.2 1.2 0.8 1.2 0.7-10.8-7.1-23.3-8.1-33.6-5.9-0.7 0.3-1 0.6-1.8 1 1.5-0.5 2.4-0.6 3.8-0.9 0.3-0.3-1.3 0.1-0.6-0.2 0.1 0.1 1.4-0.2 1.7-0.1 0 0.1-0.4 0.2-0.5 0.3 3.3-0.7 6.7-0.8 9.6-0.6-1.7 0.1-4.8-0.2-5.8 0.3 1-0.1 2.4-0.2 3.3-0.1-1.2 0-3.4 0.1-4.4 0.2-0.1-0.1 1.6-0.3 0.5-0.3-0.5 0.1-1.3 0.1-1.6 0.4-8.6 0.8-17 5.3-22.9 10.6-1.2 1-2.6 2.1-3.5 3.2-2.2 2.5-3.6 5-5.2 7.2 1-2.1 3.2-5.3 5.8-8 2.6-2.7 5.4-5 6.9-6.2 0 0.4 2.4-1.5 3.3-2.1-0.6 0.5 0.4-0.2 0.6-0.1 3.2-1.9 5.8-2.6 8.7-3.7-0.7 0.2-1.3 0.4-1.4 0.3 0.7-0.2 1.1-0.4 1-0.5-2.8 0.8-7.2 2.7-10.7 4.8 6.3-4.3 14.3-6.9 22.2-7 7.9-0.2 15.6 1.8 21.7 5 4.1 1.8 8 5.1 11.1 8.3 0.9 0.8 0.2-0.2 1.5 1.2-0.4-0.2-0.7-0.4-0.2 0.2 0.8 0.9-0.2-0.7 1.1 0.9-0.1 0-0.5-0.5-0.5-0.3 3.5 3.1 6.2 8.7 7.8 12.4-0.4-1.5-1.4-3.6-2.2-5.1 2.4 4.4 3.2 7 4.2 10.9 0.4 0.3-0.2-1.4 0.2-0.6 0.1 0.6 0.2 2.5 0.6 2.8-0.3-1.9-0.8-4.2-1.2-4.6 0.3 0.2-0.5-2.3-1-2.9-0.2-1.6-1.6-4.4-2.8-6.5-4.3-8.4-12-15.3-20.6-19.1 0-0.2-0.5-0.4-0.7-0.6-8.5-3.6-18.7-4.6-28.5-2.3-9.9 2.4-19.2 8.1-25.8 16.3 0.3-1 2.8-2.9 2.9-3.7-2.9 3.1-6 7.2-8.1 11.6-2.2 4.4-3.4 8.9-3.9 12.2" fill="#ffffff" fill-rule="nonzero" stroke="none" stroke-width="1" stroke-linecap="butt" stroke-linejoin="miter" stroke-miterlimit="10" stroke-dasharray="" stroke-dashoffset="0" font-family="none" font-weight="none" font-size="none" text-anchor="none" style="mix-blend-mode: normal" data-fill-palette-color="tertiary"></path></g><g transform="matrix(1,0,0,1,48,132.40709439823107)"><svg viewBox="0 0 224 95.18581120353788" height="95.18581120353788" width="224"><g><svg viewBox="0 0 225.11999999999998 95.66174025955556" height="95.18581120353788" width="224"><g><rect width="225.11999999999998" height="2.2445056853333334" x="0" y="57.470336" fill="#ffffff" opacity="1" stroke-width="0" stroke="transparent" fill-opacity="1" class="rect-s$-0" data-fill-palette-color="primary" rx="1%" id="s$-0" data-palette-color="#ffffff"></rect></g><g><rect width="225.11999999999998" height="2.2445056853333334" x="0" y="62.652676352" fill="#ffffff" opacity="1" stroke-width="0" stroke="transparent" fill-opacity="1" class="rect-s$-1" data-fill-palette-color="primary" rx="1%" id="s$-1" data-palette-color="#ffffff"></rect></g><g transform="matrix(1,0,0,1,0.5599999999999881,70.77285137066667)"><svg viewBox="0 0 224 24.88888888888889" height="24.88888888888889" width="224"><g id="textblocktransform"><svg viewBox="0 0 224 24.88888888888889" height="24.88888888888889" width="224" id="textblock"><g><svg viewBox="0 0 224 24.88888888888889" height="24.88888888888889" width="224"><g transform="matrix(1,0,0,1,0,0)"><svg width="224" viewBox="0 -50 393.73 43.75" height="24.88888888888889" data-palette-color="#ffffff"><path d="M12.5-6.25L0-6.25 0-50 12.5-50 12.5-43.75 18.75-43.75 18.75-37.5 25-37.5 25-31.25 31.25-31.25 31.25-50 43.75-50 43.75-6.25 31.25-6.25 31.25-18.75 25-18.75 25-25 18.75-25 18.75-31.25 12.5-31.25 12.5-6.25ZM87.5-6.25L56.25-6.25 56.25-12.5 50-12.5 50-50 62.5-50 62.5-12.5 81.25-12.5 81.25-50 93.75-50 93.75-12.5 87.5-12.5 87.5-6.25ZM112.5-6.25L100-6.25 100-50 112.5-50 112.5-43.75 118.75-43.75 118.75-37.5 125-37.5 125-43.75 131.25-43.75 131.25-50 143.75-50 143.75-6.25 131.25-6.25 131.25-31.25 125-31.25 125-18.75 118.75-18.75 118.75-31.25 112.5-31.25 112.5-6.25ZM187.49-6.25L149.99-6.25 149.99-50 187.49-50 187.49-43.75 193.74-43.75 193.74-31.25 187.49-31.25 187.49-25 193.74-25 193.74-12.5 187.49-12.5 187.49-6.25ZM162.49-43.75L162.49-31.25 181.24-31.25 181.24-43.75 162.49-43.75ZM162.49-25L162.49-12.5 181.24-12.5 181.24-25 162.49-25ZM243.74-6.25L199.99-6.25 199.99-50 243.74-50 243.74-43.75 212.49-43.75 212.49-31.25 237.49-31.25 237.49-25 212.49-25 212.49-12.5 243.74-12.5 243.74-6.25ZM262.49-6.25L249.99-6.25 249.99-50 287.49-50 287.49-43.75 293.74-43.75 293.74-25 281.24-25 281.24-18.75 287.49-18.75 287.49-12.5 293.74-12.5 293.74-6.25 274.99-6.25 274.99-12.5 268.74-12.5 268.74-18.75 262.49-18.75 262.49-6.25ZM262.49-43.75L262.49-25 274.99-25 274.99-31.25 281.24-31.25 281.24-43.75 262.49-43.75ZM343.74-6.25L306.24-6.25 306.24-12.5 318.74-12.5 318.74-43.75 306.24-43.75 306.24-50 343.74-50 343.74-43.75 331.24-43.75 331.24-12.5 343.74-12.5 343.74-6.25ZM387.48-6.25L356.23-6.25 356.23-12.5 349.98-12.5 349.98-43.75 356.23-43.75 356.23-50 387.48-50 387.48-43.75 393.73-43.75 393.73-12.5 387.48-12.5 387.48-6.25ZM362.48-43.75L362.48-12.5 381.23-12.5 381.23-43.75 362.48-43.75Z" opacity="1" transform="matrix(1,0,0,1,0,0)" fill="#ffffff" class="undefined-text-0" data-fill-palette-color="primary" id="text-0"></path></svg></g></svg></g></svg></g></svg></g><g transform="matrix(1,0,0,1,68.26887464582308,0)"><svg viewBox="0 0 88.58225070835381 51.59466666666667" height="51.59466666666667" width="88.58225070835381"><g><svg xmlns="http://www.w3.org/2000/svg" xmlns:sodipodi="http://sodipodi.sourceforge.net/DTD/sodipodi-0.dtd" viewBox="5.750000048712103 26.49446512043659 87.99999939687257 51.25553481923811" x="0" y="0" height="51.59466666666667" width="88.58225070835381" class="icon-icon-0" data-fill-palette-color="accent" id="icon-0"><path d="M16.838 26.792c-0.832 0.982-0.787 2.76-0.771 3.783 0.165 11.545 0.247 13.541 0.174 17.35-1.812 0.113-2.49 0.118-4.827 0.299-1.434 0.111-4.27 0.187-5.277 1.219-1.318 1.352 1.097 4.087 1.842 5.203 1.438 2.153 2.942 3.011 8.09 2.967-0.045 2.57-0.118 4.364-0.15 8.607-0.053 7.017 2.383 15.029 4.631 9.882 2.107-4.826 2.846-11.642 3.559-18.988 2.289-0.228 4.112-0.395 6.149-0.648-0.049 2.707-0.138 4.964-0.174 9.753-0.054 7.017 2.397 15.035 4.63 9.883 2.244-5.179 2.98-12.56 3.684-20.486 2.019-0.252 4.033-0.516 6.049-0.797-0.053 2.856-0.154 5.782-0.199 11.4-0.056 7.017 2.388 15.042 4.605 9.883 2.419-5.632 3.194-13.879 3.883-22.527 2.012-0.33 3.975-0.684 5.899-1.046-0.059 2.978-0.165 6.701-0.224 13.693-0.059 7.017 2.409 15.051 4.605 9.882 2.657-6.257 3.419-15.522 4.058-25.116 3.011-0.718 5.871-1.094 8.215-2.117 5.54-2.416-0.341-4.769-7.866-4.827 0.363-11.934-0.095-12.227-3.41-16.031-0.918-1.054-2.51-1.517-3.908-1.518-0.276 0-0.593 0.089-0.772 0.299-0.835 0.982-0.81 2.76-0.796 3.784 0.109 8.404 0.202 11.345 0.199 13.915-2.372 0.206-3.595 0.305-5.501 0.473 0.03-0.663 0.074-1.337 0.099-1.992 0.459-11.703-0.13-11.092-3.485-14.96-0.916-1.056-2.51-1.517-3.908-1.518-0.276 0-0.593 0.089-0.771 0.299-0.835 0.982-0.81 2.76-0.797 3.783 0.13 9.631 0.224 12.303 0.199 15.159-2.261 0.205-4.043 0.359-5.551 0.498 0.055-1.093 0.108-2.191 0.15-3.261 0.459-11.703-0.13-11.092-3.485-14.961-0.916-1.056-2.51-1.517-3.908-1.518-0.276 0-0.594 0.088-0.772 0.299-0.831 0.983-0.786 2.76-0.772 3.784 0.151 10.784 0.254 13.09 0.199 16.429-1.417 0.106-3.487 0.234-5.623 0.373 0.081-1.483 0.142-2.959 0.199-4.406 0.458-11.678-0.105-11.095-3.461-14.96-0.922-1.062-2.529-1.518-3.935-1.52-0.277 0-0.596 0.086-0.775 0.298z" fill="#ffffff" data-fill-palette-color="accent"></path><path d="M85.342 26.792c-0.832 0.982-0.787 2.76-0.772 3.783 0.165 11.545 0.247 13.541 0.102 21.575-0.145 8.033-0.217 9.827-0.249 14.07-0.053 7.017 2.383 15.029 4.63 9.882 2.107-4.826 3.269-11.642 4.305-28.224 1.035-16.582 0.049-15.999-3.306-19.864-0.922-1.062-2.529-1.518-3.935-1.52-0.277 0-0.596 0.086-0.775 0.298z" fill="#ffffff" data-fill-palette-color="accent"></path></svg></g></svg></g><g></g></svg></g></svg></g></svg></g><defs></defs></svg><rect width="320" height="360" fill="none" stroke="none" visibility="hidden"></rect></g></svg></g></svg>